# xmcd
#
# Track frame offsets:
#	183
#	15370
#	33908
#	53773
#
# Disc length: 986 seconds
#
# Revision: 0
# Processed by: cddbd v1.4PL0 Copyright (c) Steve Scherf et al.
# Submitted via: dBpowerAMP V4.0
#
DISCID=2103d804
DTITLE=John Lee Hooker with Bonnie Raitt - cd-single
DYEAR=1900
DGENRE=Blues
TTITLE0=I,m In The Mood (single version)
TTITLE1=My Dream
TTITLE2=That's Alright
TTITLE3=I'm In The Mood (full lenght version)
EXTD=
EXTT0=
EXTT1=
EXTT2=
EXTT3=
PLAYORDER=
